<svg width="441" height="98" viewBox="0 0 441 98" fill="none" xmlns="http://www.w3.org/2000/svg">
<g clip-path="url(#clip0_227_603)">
<path fill-rule="evenodd" clip-rule="evenodd" d="M0 0H98V98H0V0ZM5.15789 5.15789V92.8421H92.8421V5.15789H5.15789Z" fill="#6FBF8E"/>
<path d="M35.6039 20.6316L33.8703 31.3933V98H26.542V20.6316H35.6039Z" fill="#6FBF8E"/>
<path d="M35.6039 20.6316L64.1299 66.6067L62.8691 77.3684L33.8701 31.3933L35.6039 20.6316Z" fill="#6FBF8E" fill-opacity="0.5"/>
<path d="M62.8687 77.3684L64.1295 66.6067V0H71.4578V77.3684H62.8687Z" fill="#6FBF8E"/>
</g>
<path d="M122 58.7503V0.793922H137.561C142.536 0.793922 146.479 2.14359 149.39 4.84293C152.354 7.48934 153.836 11.1149 153.836 15.7197C153.836 18.419 153.307 20.7743 152.248 22.7856C151.19 24.7969 149.681 26.3582 147.723 27.4697C145.818 28.5812 143.515 29.137 140.816 29.137V28.1843C143.78 28.1313 146.321 28.7135 148.438 29.9309C150.608 31.0953 152.275 32.789 153.439 35.012C154.657 37.1821 155.265 39.7755 155.265 42.7924C155.265 46.0211 154.577 48.8527 153.201 51.2874C151.825 53.6692 149.84 55.5217 147.247 56.8449C144.706 58.1152 141.689 58.7503 138.196 58.7503H122ZM127.16 53.9868H137.878C141.636 53.9868 144.6 52.9811 146.77 50.9699C148.94 48.9586 150.025 46.2063 150.025 42.7131C150.025 39.2198 148.94 36.4146 146.77 34.2975C144.6 32.1803 141.636 31.1218 137.878 31.1218H127.16V53.9868ZM127.16 26.517H137.481C140.975 26.517 143.701 25.5908 145.659 23.7383C147.617 21.8329 148.596 19.2659 148.596 16.0372C148.596 12.7557 147.617 10.1887 145.659 8.33619C143.701 6.4837 141.001 5.55746 137.561 5.55746H127.16V26.517Z" fill="#121212"/>
<path d="M185.245 59.5442C181.963 59.5442 179.105 58.9091 176.67 57.6388C174.289 56.3156 172.436 54.4367 171.113 52.002C169.843 49.5673 169.207 46.6827 169.207 43.3482V16.196C169.207 12.8616 169.843 10.0034 171.113 7.62166C172.436 5.18696 174.289 3.30801 176.67 1.98481C179.105 0.661602 181.963 0 185.245 0C188.526 0 191.358 0.661602 193.74 1.98481C196.174 3.30801 198.027 5.18696 199.297 7.62166C200.62 10.0034 201.282 12.8616 201.282 16.196V43.3482C201.282 46.6827 200.62 49.5673 199.297 52.002C198.027 54.4367 196.174 56.3156 193.74 57.6388C191.358 58.9091 188.526 59.5442 185.245 59.5442ZM185.245 54.8601C188.685 54.8601 191.331 53.8544 193.184 51.8432C195.089 49.8319 196.042 47.0002 196.042 43.3482V16.196C196.042 12.544 195.089 9.71232 193.184 7.70105C191.278 5.68978 188.632 4.68414 185.245 4.68414C181.857 4.68414 179.211 5.68978 177.305 7.70105C175.4 9.71232 174.447 12.544 174.447 16.196V43.3482C174.447 47.0002 175.374 49.8319 177.226 51.8432C179.131 53.8544 181.804 54.8601 185.245 54.8601Z" fill="#121212"/>
<path d="M230.308 58.7503V5.55746H213.636V0.793922H252.062V5.55746H235.548V58.7503H230.308Z" fill="#121212"/>
<path d="M265.131 58.7503V0.793922H298.317V5.55746H270.291V27.1522H295.855V31.9951H270.371V58.7503H265.131Z" fill="#121212"/>
<path d="M309.083 58.7503L324.644 0.793922H331.472L347.033 58.7503H341.713L337.505 42.5543H318.531L314.402 58.7503H309.083ZM319.722 38.0289H336.315L330.757 16.8312C329.963 13.7613 329.328 11.1943 328.852 9.13011C328.428 7.06591 328.164 5.71624 328.058 5.0811C327.952 5.71624 327.661 7.06591 327.184 9.13011C326.708 11.1943 326.073 13.7613 325.279 16.8312L319.722 38.0289Z" fill="#121212"/>
<path d="M360.022 58.7503V0.793922H376.932C380.373 0.793922 383.363 1.48199 385.904 2.85812C388.444 4.18133 390.403 6.06028 391.779 8.49498C393.155 10.9297 393.843 13.7878 393.843 17.0693C393.843 21.1448 392.731 24.5851 390.508 27.3903C388.285 30.1955 385.242 31.9951 381.378 32.789L394.399 58.7503H388.206L375.9 33.186H365.262V58.7503H360.022ZM365.262 28.5018H376.932C380.426 28.5018 383.231 27.4433 385.348 25.3261C387.465 23.209 388.524 20.4303 388.524 16.99C388.524 13.4967 387.465 10.718 385.348 8.65376C383.231 6.58956 380.426 5.55746 376.932 5.55746H365.262V28.5018Z" fill="#121212"/>
<path d="M406.277 58.7503V0.793922H413.581L420.805 21.5947C421.335 22.9708 421.837 24.4264 422.314 25.9613C422.79 27.4433 423.161 28.6342 423.425 29.5339C423.69 28.6342 424.06 27.4433 424.537 25.9613C425.013 24.4264 425.463 22.9708 425.886 21.5947L433.032 0.793922H440.256V58.7503H435.175V29.3751C435.175 27.258 435.202 25.0086 435.255 22.6268C435.361 20.1921 435.466 17.7839 435.572 15.4021C435.731 13.0203 435.863 10.7974 435.969 8.73315C436.128 6.66895 436.26 4.89586 436.366 3.41387L426.125 33.1066H420.567L410.167 3.41387C410.326 4.89586 410.458 6.64249 410.564 8.65376C410.722 10.665 410.855 12.8615 410.961 15.2433C411.067 17.5722 411.146 19.9539 411.199 22.3886C411.305 24.8233 411.358 27.1522 411.358 29.3751V58.7503H406.277Z" fill="#121212"/>
<g opacity="0.5">
<path d="M122 97.7006L127.868 75.8435H130.443L136.312 97.7006H134.306L132.719 91.5926H125.563L124.006 97.7006H122ZM126.012 89.8859H132.27L130.174 81.8916C129.875 80.7339 129.635 79.7658 129.455 78.9873C129.296 78.2088 129.196 77.6998 129.156 77.4603C129.116 77.6998 129.006 78.2088 128.827 78.9873C128.647 79.7658 128.407 80.7339 128.108 81.8916L126.012 89.8859Z" fill="#121212"/>
<path d="M141.54 97.7006V95.9041H146.121V77.64H141.54V75.8135H152.678V77.64H148.127V95.9041H152.678V97.7006H141.54Z" fill="#121212"/>
<path d="M160.271 88.6883V86.9217H169.853V88.6883H160.271Z" fill="#121212"/>
<path d="M177.087 97.7006V75.8435H179.752L187.237 95.455C187.197 95.0159 187.157 94.5069 187.117 93.928C187.097 93.3491 187.077 92.7803 187.057 92.2213C187.037 91.6624 187.027 91.1934 187.027 90.8141V75.8435H188.944V97.7006H186.279L178.853 78.0891C178.873 78.3885 178.893 78.7877 178.913 79.2867C178.933 79.7857 178.953 80.3347 178.973 80.9335C178.993 81.5323 179.003 82.1311 179.003 82.73V97.7006H177.087Z" fill="#121212"/>
<path d="M193.812 97.7006L199.681 75.8435H202.256L208.124 97.7006H206.118L204.531 91.5926H197.375L195.818 97.7006H193.812ZM197.824 89.8859H204.082L201.986 81.8916C201.687 80.7339 201.447 79.7658 201.268 78.9873C201.108 78.2088 201.008 77.6998 200.968 77.4603C200.928 77.6998 200.819 78.2088 200.639 78.9873C200.459 79.7658 200.22 80.7339 199.92 81.8916L197.824 89.8859Z" fill="#121212"/>
<path d="M217.963 97.7006V77.64H211.675V75.8435H226.167V77.64H219.939V97.7006H217.963Z" fill="#121212"/>
<path d="M231.305 97.7006V95.9041H235.886V77.64H231.305V75.8135H242.443V77.64H237.892V95.9041H242.443V97.7006H231.305Z" fill="#121212"/>
<path d="M253.51 97.7006L247.671 75.8435H249.737L253.869 91.6525C254.129 92.5906 254.338 93.4689 254.498 94.2873C254.658 95.1057 254.777 95.7245 254.857 96.1437C254.937 95.7245 255.057 95.1057 255.217 94.2873C255.396 93.4689 255.616 92.5906 255.875 91.6525L260.007 75.8435H261.983L256.145 97.7006H253.51Z" fill="#121212"/>
<path d="M267.152 97.7006V75.8435H279.188V77.64H269.128V85.3947H278.14V87.1912H269.128V95.9041H279.188V97.7006H267.152Z" fill="#121212"/>
<path d="M308.687 98C307.449 98 306.371 97.7605 305.453 97.2814C304.555 96.7824 303.856 96.0738 303.357 95.1556C302.878 94.2374 302.638 93.1495 302.638 91.892V81.6521C302.638 80.3946 302.878 79.3167 303.357 78.4184C303.856 77.5002 304.555 76.7916 305.453 76.2926C306.371 75.7936 307.449 75.5441 308.687 75.5441C309.924 75.5441 310.992 75.7936 311.89 76.2926C312.808 76.7916 313.507 77.5002 313.986 78.4184C314.485 79.3167 314.735 80.3946 314.735 81.6521V91.892C314.735 93.1495 314.485 94.2374 313.986 95.1556C313.507 96.0738 312.808 96.7824 311.89 97.2814C310.992 97.7605 309.924 98 308.687 98ZM308.687 96.2335C309.984 96.2335 310.982 95.8542 311.681 95.0957C312.399 94.3372 312.759 93.2693 312.759 91.892V81.6521C312.759 80.2748 312.399 79.2069 311.681 78.4484C310.962 77.6899 309.964 77.3106 308.687 77.3106C307.409 77.3106 306.411 77.6899 305.692 78.4484C304.974 79.2069 304.615 80.2748 304.615 81.6521V91.892C304.615 93.2693 304.964 94.3372 305.663 95.0957C306.381 95.8542 307.389 96.2335 308.687 96.2335Z" fill="#121212"/>
<path d="M326.67 98C324.793 98 323.326 97.4511 322.268 96.3532C321.21 95.2354 320.681 93.7484 320.681 91.892V75.8435H322.657V91.892C322.657 93.2493 322.997 94.3172 323.675 95.0957C324.374 95.8542 325.372 96.2335 326.67 96.2335C327.947 96.2335 328.925 95.8542 329.604 95.0957C330.282 94.3172 330.622 93.2493 330.622 91.892V75.8435H332.598V91.892C332.598 93.7683 332.069 95.2554 331.011 96.3532C329.973 97.4511 328.526 98 326.67 98Z" fill="#121212"/>
<path d="M343.635 97.7006V77.64H337.347V75.8435H351.839V77.64H345.611V97.7006H343.635Z" fill="#121212"/>
<path d="M356.647 97.7006V75.8435H363.025C364.322 75.8435 365.45 76.103 366.408 76.622C367.366 77.121 368.105 77.8296 368.624 78.7478C369.143 79.666 369.402 80.7439 369.402 81.9814C369.402 83.5184 368.983 84.8159 368.145 85.8738C367.306 86.9317 366.159 87.6104 364.702 87.9098L369.612 97.7006H367.276L362.636 88.0595H358.623V97.7006H356.647ZM358.623 86.293H363.025C364.342 86.293 365.4 85.8938 366.199 85.0953C366.997 84.2969 367.396 83.249 367.396 81.9515C367.396 80.6341 366.997 79.5861 366.199 78.8077C365.4 78.0292 364.342 77.64 363.025 77.64H358.623V86.293Z" fill="#121212"/>
<path d="M374.87 97.7006V75.8435H386.906V77.64H376.846V85.3947H385.858V87.1912H376.846V95.9041H386.906V97.7006H374.87Z" fill="#121212"/>
<path d="M391.296 97.7006L397.164 75.8435H399.739L405.608 97.7006H403.602L402.015 91.5926H394.859L393.302 97.7006H391.296ZM395.308 89.8859H401.566L399.47 81.8916C399.17 80.7339 398.931 79.7658 398.751 78.9873C398.592 78.2088 398.492 77.6998 398.452 77.4603C398.412 77.6998 398.302 78.2088 398.123 78.9873C397.943 79.7658 397.703 80.7339 397.404 81.8916L395.308 89.8859Z" fill="#121212"/>
<path d="M416.555 98C415.297 98 414.199 97.7505 413.261 97.2515C412.343 96.7525 411.624 96.0439 411.105 95.1257C410.606 94.2075 410.357 93.1296 410.357 91.892V81.6521C410.357 80.3946 410.606 79.3067 411.105 78.3885C411.624 77.4703 412.343 76.7717 413.261 76.2926C414.199 75.7936 415.297 75.5441 416.555 75.5441C417.832 75.5441 418.93 75.8036 419.848 76.3225C420.786 76.8415 421.505 77.5701 422.004 78.5083C422.523 79.4464 422.782 80.5542 422.782 81.8317H420.806C420.806 80.4145 420.427 79.3067 419.669 78.5083C418.91 77.7098 417.872 77.3106 416.555 77.3106C415.257 77.3106 414.229 77.6998 413.471 78.4783C412.712 79.2368 412.333 80.2947 412.333 81.6521V91.892C412.333 93.2493 412.712 94.3172 413.471 95.0957C414.229 95.8542 415.257 96.2335 416.555 96.2335C417.892 96.2335 418.93 95.8343 419.669 95.0358C420.427 94.2174 420.806 93.1096 420.806 91.7123H422.782C422.782 92.9898 422.523 94.0977 422.004 95.0358C421.505 95.974 420.786 96.7026 419.848 97.2215C418.93 97.7405 417.832 98 416.555 98Z" fill="#121212"/>
<path d="M428.46 97.7006V75.8435H430.436V85.4846H438.28V75.8435H440.256V97.7006H438.28V87.281H430.436V97.7006H428.46Z" fill="#121212"/>
</g>
<defs>
<clipPath id="clip0_227_603">
<rect width="98" height="98" fill="white"/>
</clipPath>
</defs>
</svg>
