<svg width="502" height="98" viewBox="0 0 502 98" fill="none" xmlns="http://www.w3.org/2000/svg">
<g clip-path="url(#clip0_227_503)">
<path d="M127.152 55.28V2.71997H131.904V50.96H156.744V55.28H127.152Z" fill="#121212"/>
<path d="M183.428 56C180.452 56 177.86 55.424 175.652 54.272C173.492 53.072 171.812 51.368 170.612 49.16C169.46 46.952 168.884 44.336 168.884 41.312V16.688C168.884 13.664 169.46 11.072 170.612 8.91199C171.812 6.70399 173.492 4.99999 175.652 3.8C177.86 2.6 180.452 2 183.428 2C186.404 2 188.972 2.6 191.132 3.8C193.34 4.99999 195.02 6.70399 196.172 8.91199C197.372 11.072 197.972 13.664 197.972 16.688V41.312C197.972 44.336 197.372 46.952 196.172 49.16C195.02 51.368 193.34 53.072 191.132 54.272C188.972 55.424 186.404 56 183.428 56ZM183.428 51.752C186.548 51.752 188.948 50.84 190.628 49.016C192.356 47.192 193.22 44.624 193.22 41.312V16.688C193.22 13.376 192.356 10.808 190.628 8.984C188.9 7.16 186.5 6.24799 183.428 6.24799C180.356 6.24799 177.956 7.16 176.228 8.984C174.5 10.808 173.636 13.376 173.636 16.688V41.312C173.636 44.624 174.476 47.192 176.156 49.016C177.884 50.84 180.308 51.752 183.428 51.752Z" fill="#121212"/>
<path d="M226.96 56C223.936 56 221.296 55.4 219.04 54.2C216.832 53 215.104 51.296 213.856 49.088C212.656 46.88 212.056 44.288 212.056 41.312V16.688C212.056 13.664 212.656 11.048 213.856 8.84C215.104 6.632 216.832 4.95199 219.04 3.8C221.296 2.6 223.936 2 226.96 2C230.032 2 232.672 2.624 234.88 3.87199C237.136 5.12 238.864 6.872 240.064 9.128C241.312 11.384 241.936 14.048 241.936 17.12H237.184C237.184 13.712 236.272 11.048 234.448 9.128C232.624 7.208 230.128 6.24799 226.96 6.24799C223.84 6.24799 221.368 7.184 219.544 9.056C217.72 10.88 216.808 13.424 216.808 16.688V41.312C216.808 44.576 217.72 47.144 219.544 49.016C221.368 50.84 223.84 51.752 226.96 51.752C230.176 51.752 232.672 50.792 234.448 48.872C236.272 46.904 237.184 44.24 237.184 40.88V33.536H225.448V29.216H241.936V40.88C241.936 43.952 241.312 46.616 240.064 48.872C238.864 51.128 237.136 52.88 234.88 54.128C232.672 55.376 230.032 56 226.96 56Z" fill="#121212"/>
<path d="M256.38 55.28V50.96H267.396V7.04001H256.38V2.64801H283.164V7.04001H272.22V50.96H283.164V55.28H256.38Z" fill="#121212"/>
<path d="M313.304 56C309.992 56 307.112 55.424 304.664 54.272C302.264 53.12 300.392 51.488 299.048 49.376C297.752 47.216 297.104 44.696 297.104 41.816H301.856C301.856 44.84 302.888 47.264 304.952 49.088C307.016 50.864 309.8 51.752 313.304 51.752C316.664 51.752 319.28 50.912 321.152 49.232C323.072 47.552 324.032 45.224 324.032 42.248C324.032 39.704 323.336 37.496 321.944 35.624C320.552 33.752 318.608 32.456 316.112 31.736L309.632 29.72C306.128 28.664 303.392 26.888 301.424 24.392C299.504 21.848 298.544 18.848 298.544 15.392C298.544 12.656 299.144 10.304 300.344 8.336C301.544 6.32 303.248 4.76 305.456 3.656C307.712 2.552 310.352 2 313.376 2C317.888 2 321.464 3.248 324.104 5.744C326.744 8.24 328.088 11.624 328.136 15.896H323.384C323.384 12.92 322.472 10.568 320.648 8.84C318.824 7.112 316.376 6.24799 313.304 6.24799C310.184 6.24799 307.736 7.01599 305.96 8.55199C304.184 10.088 303.296 12.248 303.296 15.032C303.296 17.432 303.968 19.544 305.312 21.368C306.656 23.144 308.528 24.416 310.928 25.184L317.408 27.2C320.96 28.304 323.744 30.176 325.76 32.816C327.776 35.456 328.784 38.528 328.784 42.032C328.784 44.864 328.136 47.336 326.84 49.448C325.592 51.512 323.792 53.12 321.44 54.272C319.136 55.424 316.424 56 313.304 56Z" fill="#121212"/>
<path d="M353.811 55.28V7.03997H338.691V2.71997H373.539V7.03997H358.563V55.28H353.811Z" fill="#121212"/>
<path d="M385.895 55.28V50.96H396.911V7.04001H385.895V2.64801H412.679V7.04001H401.735V50.96H412.679V55.28H385.895Z" fill="#121212"/>
<path d="M442.819 56C439.795 56 437.155 55.4 434.899 54.2C432.691 53 430.963 51.296 429.715 49.088C428.515 46.88 427.915 44.288 427.915 41.312V16.688C427.915 13.664 428.515 11.048 429.715 8.84C430.963 6.632 432.691 4.95199 434.899 3.8C437.155 2.6 439.795 2 442.819 2C445.891 2 448.531 2.624 450.739 3.87199C452.995 5.12 454.723 6.872 455.923 9.128C457.171 11.384 457.795 14.048 457.795 17.12H453.043C453.043 13.712 452.131 11.048 450.307 9.128C448.483 7.208 445.987 6.24799 442.819 6.24799C439.699 6.24799 437.227 7.184 435.403 9.056C433.579 10.88 432.667 13.424 432.667 16.688V41.312C432.667 44.576 433.579 47.144 435.403 49.016C437.227 50.84 439.699 51.752 442.819 51.752C446.035 51.752 448.531 50.792 450.307 48.872C452.131 46.904 453.043 44.24 453.043 40.88H457.795C457.795 43.952 457.171 46.616 455.923 48.872C454.723 51.128 452.995 52.88 450.739 54.128C448.531 55.376 445.891 56 442.819 56Z" fill="#121212"/>
<path d="M485.991 56C482.679 56 479.799 55.424 477.351 54.272C474.951 53.12 473.079 51.488 471.735 49.376C470.439 47.216 469.791 44.696 469.791 41.816H474.543C474.543 44.84 475.575 47.264 477.639 49.088C479.703 50.864 482.487 51.752 485.991 51.752C489.351 51.752 491.967 50.912 493.839 49.232C495.759 47.552 496.719 45.224 496.719 42.248C496.719 39.704 496.023 37.496 494.631 35.624C493.239 33.752 491.295 32.456 488.799 31.736L482.319 29.72C478.815 28.664 476.079 26.888 474.111 24.392C472.191 21.848 471.231 18.848 471.231 15.392C471.231 12.656 471.831 10.304 473.031 8.336C474.231 6.32 475.935 4.76 478.143 3.656C480.399 2.552 483.039 2 486.063 2C490.575 2 494.151 3.248 496.791 5.744C499.431 8.24 500.775 11.624 500.823 15.896H496.071C496.071 12.92 495.159 10.568 493.335 8.84C491.511 7.112 489.063 6.24799 485.991 6.24799C482.871 6.24799 480.423 7.01599 478.647 8.55199C476.871 10.088 475.983 12.248 475.983 15.032C475.983 17.432 476.655 19.544 477.999 21.368C479.343 23.144 481.215 24.416 483.615 25.184L490.095 27.2C493.647 28.304 496.431 30.176 498.447 32.816C500.463 35.456 501.471 38.528 501.471 42.032C501.471 44.864 500.823 47.336 499.527 49.448C498.279 51.512 496.479 53.12 494.127 54.272C491.823 55.424 489.111 56 485.991 56Z" fill="#121212"/>
<g opacity="0.7">
<path d="M128.464 94L133.168 76.48H135.232L139.936 94H138.328L137.056 89.104H131.32L130.072 94H128.464ZM131.68 87.736H136.696L135.016 81.328C134.776 80.4 134.584 79.624 134.44 79C134.312 78.376 134.232 77.968 134.2 77.776C134.168 77.968 134.08 78.376 133.936 79C133.792 79.624 133.6 80.4 133.36 81.328L131.68 87.736Z" fill="#121212"/>
<path d="M144.127 94V92.56H147.799V77.92H144.127V76.456H153.055V77.92H149.407V92.56H153.055V94H144.127Z" fill="#121212"/>
<path d="M159.141 86.776V85.36H166.821V86.776H159.141Z" fill="#121212"/>
<path d="M172.62 94V76.48H174.756L180.756 92.2C180.724 91.848 180.692 91.44 180.66 90.976C180.644 90.512 180.628 90.056 180.612 89.608C180.596 89.16 180.588 88.784 180.588 88.48V76.48H182.124V94H179.988L174.036 78.28C174.052 78.52 174.068 78.84 174.084 79.24C174.1 79.64 174.116 80.08 174.132 80.56C174.148 81.04 174.156 81.52 174.156 82V94H172.62Z" fill="#121212"/>
<path d="M186.027 94L190.731 76.48H192.795L197.499 94H195.891L194.619 89.104H188.883L187.635 94H186.027ZM189.243 87.736H194.259L192.579 81.328C192.339 80.4 192.147 79.624 192.003 79C191.875 78.376 191.795 77.968 191.763 77.776C191.731 77.968 191.643 78.376 191.499 79C191.355 79.624 191.163 80.4 190.923 81.328L189.243 87.736Z" fill="#121212"/>
<path d="M205.385 94V77.92H200.345V76.48H211.961V77.92H206.969V94H205.385Z" fill="#121212"/>
<path d="M216.08 94V92.56H219.752V77.92H216.08V76.456H225.008V77.92H221.36V92.56H225.008V94H216.08Z" fill="#121212"/>
<path d="M233.878 94L229.198 76.48H230.854L234.166 89.152C234.374 89.904 234.542 90.608 234.67 91.264C234.798 91.92 234.894 92.416 234.958 92.752C235.022 92.416 235.118 91.92 235.246 91.264C235.39 90.608 235.566 89.904 235.774 89.152L239.086 76.48H240.67L235.99 94H233.878Z" fill="#121212"/>
<path d="M244.813 94V76.48H254.461V77.92H246.397V84.136H253.621V85.576H246.397V92.56H254.461V94H244.813Z" fill="#121212"/>
<path d="M273.474 94V76.48H283.506V77.92H275.034V84.448H282.762V85.912H275.058V94H273.474Z" fill="#121212"/>
<path d="M287.769 94V76.48H292.881C293.921 76.48 294.825 76.688 295.593 77.104C296.361 77.504 296.953 78.072 297.369 78.808C297.785 79.544 297.993 80.408 297.993 81.4C297.993 82.632 297.657 83.672 296.985 84.52C296.313 85.368 295.393 85.912 294.225 86.152L298.161 94H296.289L292.569 86.272H289.353V94H287.769ZM289.353 84.856H292.881C293.937 84.856 294.785 84.536 295.425 83.896C296.065 83.256 296.385 82.416 296.385 81.376C296.385 80.32 296.065 79.48 295.425 78.856C294.785 78.232 293.937 77.92 292.881 77.92H289.353V84.856Z" fill="#121212"/>
<path d="M302.376 94V76.48H312.024V77.92H303.96V84.136H311.184V85.576H303.96V92.56H312.024V94H302.376Z" fill="#121212"/>
<path d="M316.814 94V92.56H320.486V77.92H316.814V76.456H325.742V77.92H322.094V92.56H325.742V94H316.814Z" fill="#121212"/>
<path d="M335.789 94.24C334.781 94.24 333.901 94.04 333.149 93.64C332.413 93.24 331.837 92.672 331.421 91.936C331.021 91.2 330.821 90.336 330.821 89.344V81.136C330.821 80.128 331.021 79.256 331.421 78.52C331.837 77.784 332.413 77.224 333.149 76.84C333.901 76.44 334.781 76.24 335.789 76.24C336.813 76.24 337.693 76.448 338.429 76.864C339.181 77.28 339.757 77.864 340.157 78.616C340.573 79.368 340.781 80.256 340.781 81.28H339.197C339.197 80.144 338.893 79.256 338.285 78.616C337.677 77.976 336.845 77.656 335.789 77.656C334.749 77.656 333.925 77.968 333.317 78.592C332.709 79.2 332.405 80.048 332.405 81.136V89.344C332.405 90.432 332.709 91.288 333.317 91.912C333.925 92.52 334.749 92.824 335.789 92.824C336.861 92.824 337.693 92.504 338.285 91.864C338.893 91.208 339.197 90.32 339.197 89.2V86.752H335.285V85.312H340.781V89.2C340.781 90.224 340.573 91.112 340.157 91.864C339.757 92.616 339.181 93.2 338.429 93.616C337.693 94.032 336.813 94.24 335.789 94.24Z" fill="#121212"/>
<path d="M345.331 94V76.48H346.915V84.208H353.203V76.48H354.787V94H353.203V85.648H346.915V94H345.331Z" fill="#121212"/>
<path d="M363.682 94V77.92H358.642V76.48H370.258V77.92H365.266V94H363.682Z" fill="#121212"/>
<path d="M388.503 94V76.48H393.855C394.895 76.48 395.799 76.688 396.567 77.104C397.351 77.504 397.951 78.08 398.367 78.832C398.799 79.568 399.015 80.448 399.015 81.472C399.015 82.48 398.799 83.36 398.367 84.112C397.951 84.848 397.351 85.424 396.567 85.84C395.799 86.256 394.895 86.464 393.855 86.464H390.087V94H388.503ZM390.087 85.024H393.855C394.927 85.024 395.783 84.704 396.423 84.064C397.079 83.408 397.407 82.544 397.407 81.472C397.407 80.368 397.087 79.504 396.447 78.88C395.807 78.24 394.943 77.92 393.855 77.92H390.087V85.024Z" fill="#121212"/>
<path d="M403.254 94V76.48H404.838V92.56H413.118V94H403.254Z" fill="#121212"/>
<path d="M416.277 94L420.981 76.48H423.045L427.749 94H426.141L424.869 89.104H419.133L417.885 94H416.277ZM419.493 87.736H424.509L422.829 81.328C422.589 80.4 422.397 79.624 422.253 79C422.125 78.376 422.045 77.968 422.013 77.776C421.981 77.968 421.893 78.376 421.749 79C421.605 79.624 421.413 80.4 421.173 81.328L419.493 87.736Z" fill="#121212"/>
<path d="M435.635 94V77.92H430.595V76.48H442.211V77.92H437.219V94H435.635Z" fill="#121212"/>
<path d="M446.162 94V76.48H456.194V77.92H447.722V84.448H455.45V85.912H447.746V94H446.162Z" fill="#121212"/>
<path d="M465.184 94.24C464.192 94.24 463.328 94.048 462.592 93.664C461.872 93.264 461.312 92.696 460.912 91.96C460.528 91.224 460.336 90.352 460.336 89.344V81.136C460.336 80.128 460.528 79.264 460.912 78.544C461.312 77.808 461.872 77.24 462.592 76.84C463.328 76.44 464.192 76.24 465.184 76.24C466.176 76.24 467.032 76.44 467.752 76.84C468.488 77.24 469.048 77.808 469.432 78.544C469.832 79.264 470.033 80.128 470.033 81.136V89.344C470.033 90.352 469.832 91.224 469.432 91.96C469.048 92.696 468.488 93.264 467.752 93.664C467.032 94.048 466.176 94.24 465.184 94.24ZM465.184 92.824C466.224 92.824 467.024 92.52 467.584 91.912C468.16 91.304 468.448 90.448 468.448 89.344V81.136C468.448 80.032 468.16 79.176 467.584 78.568C467.008 77.96 466.208 77.656 465.184 77.656C464.16 77.656 463.36 77.96 462.784 78.568C462.208 79.176 461.92 80.032 461.92 81.136V89.344C461.92 90.448 462.2 91.304 462.76 91.912C463.336 92.52 464.144 92.824 465.184 92.824Z" fill="#121212"/>
<path d="M474.847 94V76.48H479.959C480.999 76.48 481.903 76.688 482.671 77.104C483.439 77.504 484.031 78.072 484.447 78.808C484.863 79.544 485.071 80.408 485.071 81.4C485.071 82.632 484.735 83.672 484.063 84.52C483.391 85.368 482.471 85.912 481.303 86.152L485.239 94H483.367L479.647 86.272H476.431V94H474.847ZM476.431 84.856H479.959C481.015 84.856 481.863 84.536 482.503 83.896C483.143 83.256 483.463 82.416 483.463 81.376C483.463 80.32 483.143 79.48 482.503 78.856C481.863 78.232 481.015 77.92 479.959 77.92H476.431V84.856Z" fill="#121212"/>
<path d="M488.83 94V76.48H491.038L493.222 82.768C493.382 83.184 493.534 83.624 493.678 84.088C493.822 84.536 493.934 84.896 494.014 85.168C494.094 84.896 494.206 84.536 494.35 84.088C494.494 83.624 494.63 83.184 494.758 82.768L496.918 76.48H499.102V94H497.566V85.12C497.566 84.48 497.574 83.8 497.59 83.08C497.622 82.344 497.654 81.616 497.686 80.896C497.734 80.176 497.774 79.504 497.806 78.88C497.854 78.256 497.894 77.72 497.926 77.272L494.83 86.248H493.15L490.006 77.272C490.054 77.72 490.094 78.248 490.126 78.856C490.174 79.464 490.214 80.128 490.246 80.848C490.278 81.552 490.302 82.272 490.318 83.008C490.35 83.744 490.366 84.448 490.366 85.12V94H488.83Z" fill="#121212"/>
</g>
<g clip-path="url(#clip1_227_503)">
<path fill-rule="evenodd" clip-rule="evenodd" d="M0 0H98V98H0V0ZM5.15789 5.15789V92.8421H92.8421V5.15789H5.15789Z" fill="#6FBF8E"/>
<path d="M35.6039 20.6316L33.8703 31.3933V98H26.542V20.6316H35.6039Z" fill="#6FBF8E"/>
<path d="M35.6039 20.6316L64.1299 66.6067L62.8691 77.3684L33.8701 31.3933L35.6039 20.6316Z" fill="#6FBF8E" fill-opacity="0.5"/>
<path d="M62.8687 77.3684L64.1295 66.6067V0H71.4578V77.3684H62.8687Z" fill="#6FBF8E"/>
</g>
</g>
<defs>
<clipPath id="clip0_227_503">
<rect width="502" height="98" fill="white"/>
</clipPath>
<clipPath id="clip1_227_503">
<rect width="98" height="98" fill="white"/>
</clipPath>
</defs>
</svg>
