<svg width="306" height="38" viewBox="0 0 306 38" fill="none" xmlns="http://www.w3.org/2000/svg">
<path d="M22.896 29.656V1.76799H27.36V36.184H22.128L4.464 8.29598V36.184H0V1.76799H5.52L22.896 29.656Z" fill="#121212"/>
<path d="M127.04 6.66399C129.296 9.73599 130.448 13.624 130.448 18.376C130.448 23.512 129.152 27.784 126.56 31.192C123.488 35.176 119.12 37.192 113.456 37.192C108.128 37.192 104 35.416 100.976 31.96C98.2399 28.552 96.8959 24.28 96.8959 19.144C96.8959 14.488 98.0479 10.504 100.352 7.19198C103.328 2.96798 107.744 0.807983 113.552 0.807983C119.6 0.807983 124.112 2.77598 127.04 6.66399ZM122.96 28.6C124.784 25.672 125.696 22.264 125.696 18.424C125.696 14.392 124.64 11.128 122.528 8.67999C120.368 6.18399 117.488 4.98398 113.84 4.98398C110.24 4.98398 107.36 6.18399 105.104 8.63199C102.848 11.08 101.744 14.68 101.744 19.432C101.744 23.272 102.704 26.488 104.624 29.08C106.544 31.72 109.664 33.016 114.032 33.016C118.112 33.016 121.088 31.528 122.96 28.6Z" fill="#121212"/>
<path d="M152.543 1.76799C155.183 1.76799 157.343 2.15198 159.023 2.91998C162.287 4.35998 163.871 7.09599 163.871 11.032C163.871 13.096 163.439 14.776 162.623 16.12C161.759 17.416 160.559 18.472 159.023 19.24C160.367 19.816 161.375 20.536 162.095 21.4C162.767 22.312 163.151 23.752 163.199 25.768L163.391 30.376C163.391 31.672 163.535 32.68 163.679 33.304C163.967 34.408 164.447 35.128 165.215 35.416V36.184H159.455C159.311 35.896 159.215 35.512 159.119 35.032C159.023 34.552 158.927 33.64 158.879 32.296L158.591 26.584C158.447 24.328 157.631 22.84 156.095 22.072C155.183 21.64 153.791 21.4 151.871 21.4H141.263V36.184H136.607V1.76799H152.543ZM152.063 17.512C154.223 17.512 155.951 17.08 157.247 16.216C158.495 15.352 159.167 13.768 159.167 11.464C159.167 9.01598 158.255 7.33599 156.479 6.47198C155.519 5.99199 154.271 5.75199 152.639 5.75199H141.263V17.512H152.063Z" fill="#121212"/>
<path d="M176.432 36.184H171.728V1.76799H176.432V36.184Z" fill="#121212"/>
<path d="M189.119 23.032C189.119 25.528 189.551 27.592 190.511 29.272C191.903 31.768 194.255 33.016 197.519 33.016C201.503 33.016 204.191 31.672 205.583 28.984C206.399 27.496 206.735 25.528 206.735 23.032V1.76799H211.487V21.112C211.487 25.336 210.911 28.6 209.759 30.856C207.695 35.032 203.711 37.096 197.903 37.096C192.095 37.096 188.159 35.032 186.095 30.856C184.943 28.6 184.367 25.336 184.367 21.112V1.76799H189.119V23.032Z" fill="#121212"/>
<path d="M235.136 30.856L244.976 1.76799H251.552V36.184H247.136V15.88C247.136 15.16 247.136 14.008 247.184 12.376C247.184 10.744 247.232 9.01598 247.232 7.14398L237.392 36.184H232.784L222.896 7.14398V8.19999C222.896 9.06399 222.944 10.312 222.992 12.04C222.992 13.768 223.04 15.064 223.04 15.88V36.184H218.576V1.76799H225.248L235.136 30.856Z" fill="#121212"/>
<path d="M69.6321 36.184H64.0161L76.3041 18.52L64.7841 1.76801H70.5921L79.3761 14.92L82.1121 18.52L79.1361 22.024L69.6321 36.184Z" fill="#6FBF8E"/>
<path d="M88.4482 36.184L79.1362 22.024L82.1122 18.52L94.2082 36.184H88.4482Z" fill="#121212"/>
<path d="M82.1125 18.52L93.6805 1.76801H88.1125L79.3765 14.92L82.1125 18.52Z" fill="#121212"/>
<path d="M60.1768 1.76801V5.99201H39.6328V16.408V20.392V32.104H60.5608V36.184H35.0728V1.76801H60.1768Z" fill="#121212"/>
<path d="M39.6328 20.184V16.184H76.6328V20.184H39.6328Z" fill="#6FBF8E"/>
<g clip-path="url(#clip0_226_470)">
<path fill-rule="evenodd" clip-rule="evenodd" d="M267.552 0H305.552V38H267.552V0ZM269.552 2V36H303.552V2H269.552Z" fill="#6FBF8E"/>
<path d="M281.357 8L280.685 12.1729V38H277.843V8H281.357Z" fill="#6FBF8E"/>
<path d="M281.357 8L292.418 25.8271L291.93 30L280.685 12.1729L281.357 8Z" fill="#6FBF8E" fill-opacity="0.5"/>
<path d="M291.93 30L292.419 25.8271V0H295.26V30H291.93Z" fill="#6FBF8E"/>
</g>
<defs>
<clipPath id="clip0_226_470">
<rect width="38" height="38" fill="white" transform="translate(267.552)"/>
</clipPath>
</defs>
</svg>
